<svg id="Capa_1" enable-background="new 0 0 512 512" height="512" viewBox="0 0 512 512" width="512" xmlns="http://www.w3.org/2000/svg"><g><path d="m480.133 445.93c0-34.832-16.888-66.528-43.814-86.174l-35.984 77.244 7.284 75h72.513v-66.07z" fill="#cfcfe6"/><path d="m401.24 342.952-1.668-.45-43.572 89.498 11.619 80h40l28.7-152.244c-10.342-7.547-22.161-13.321-35.079-16.804z" fill="#ece6f2"/><path d="m367.619 512 31.952-169.497-.084-.023h-163.487l20 169.52z" fill="#283d66"/><path d="m31.867 445.93c0-34.832 16.888-66.528 43.814-86.174l35.984 77.244-7.284 75h-72.514z" fill="#ece6f2"/><path d="m110.76 342.952 1.668-.45 43.572 89.498-11.619 80h-40l-28.7-152.244c10.342-7.547 22.161-13.321 35.079-16.804z" fill="#fff5f5"/><path d="m144.381 512-31.952-169.497.084-.023h143.487v169.52z" fill="#4d578c"/><path d="m256 416.398c92.349 0 168.093-71.047 175.583-161.462l-195.583-37.936z" fill="#ece6f2"/><path d="m80.417 254.937c7.49 90.415 83.235 161.462 175.583 161.462v-199.399z" fill="#fff5f5"/><path d="m79.797 176.202c-27.489-7.075-47.8-32.029-47.8-61.726v-114.476h15.934c35.2 0 63.734 28.535 63.734 63.734v112.468z" fill="#ff884d"/><path d="m432.333 176.202c27.489-7.075 47.8-32.029 47.8-61.726v-114.476h-15.934c-35.2 0-63.734 28.535-63.734 63.734v112.468z" fill="#ff4d4d"/><path d="m236 192.266 20 145.59h3.385c16.175 0 31.771-4.841 45.103-14s23.445-21.98 29.249-37.079c7.318-19.045 25.944-31.841 46.348-31.841h51.499c.403-4.861.619-9.775.619-14.74v-15.26z" fill="#283d66"/><path d="m79.798 224.937v15.26c0 4.965.216 9.879.619 14.74h51.499c20.402 0 39.028 12.796 46.348 31.841 11.741 30.552 41.621 51.079 74.352 51.079h3.384v-145.357z" fill="#4d578c"/><path d="m305.733 276.015c11.74-30.551 41.62-51.079 74.351-51.079h52.118v-48.734c0-5.69-.28-11.315-.808-16.867l-195.395-20 20 168.521h3.385c20.403 0 39.029-12.796 46.349-31.841z" fill="#0f244d"/><path d="m80.605 159.335c-.527 5.552-.808 11.177-.808 16.867v48.734h52.118c16.175 0 31.771 4.841 45.103 14s23.445 21.98 29.248 37.079c7.319 19.045 25.945 31.841 46.349 31.841h3.385v-168.521z" fill="#283d66"/><path d="m425.889 129.335-189.889-20 20 50h175.395c-.977-10.284-2.839-20.308-5.506-30z" fill="#283d66"/><path d="m86.111 129.335c-2.668 9.692-4.529 19.716-5.506 30h175.395v-50z" fill="#4d578c"/><path d="m347.288 25.475-111.288 31.714 20 72.146h169.889c-12.065-43.828-40.634-80.812-78.601-103.86z" fill="#ece6f2"/><path d="m164.712 25.475c-37.967 23.048-66.536 60.032-78.601 103.86h169.889v-72.146z" fill="#fff5f5"/><path d="m256 0-20 33 20 44.189 91.288-51.714c-26.624-16.162-57.866-25.475-91.288-25.475z" fill="#ff4d4d"/><path d="m256 0c-33.422 0-64.664 9.313-91.288 25.475l91.288 51.714z" fill="#ff884d"/></g></svg>